<?xml version="1.0" standalone="no"?>
<!DOCTYPE svg PUBLIC "-//W3C//DTD SVG 20010904//EN"
 "http://www.w3.org/TR/2001/REC-SVG-20010904/DTD/svg10.dtd">
<svg version="1.0" xmlns="http://www.w3.org/2000/svg"
 width="295.000000pt" height="247.000000pt" viewBox="0 0 295.000000 247.000000"
 preserveAspectRatio="xMidYMid meet">
<metadata>
Created by potrace 1.16, written by Peter Selinger 2001-2019
</metadata>
<g transform="translate(0.000000,247.000000) scale(0.100000,-0.100000)"
fill="#C44F4F" stroke="none">
<path d="M875 2270 c-4 -6 -13 -167 -20 -358 -8 -191 -19 -466 -25 -612 -11
-278 -26 -460 -39 -473 -16 -16 -33 106 -50 356 -16 240 -19 259 -39 280 -17
16 -26 19 -38 12 -16 -10 -22 -26 -58 -146 -18 -62 -35 -83 -59 -73 -20 7 -32
38 -61 155 -14 52 -37 118 -53 145 -39 66 -67 70 -126 15 -68 -62 -117 -81
-219 -81 -52 0 -88 -4 -88 -10 0 -14 174 -13 222 2 21 6 64 33 94 60 48 41 58
47 72 36 24 -20 58 -105 83 -207 25 -102 48 -141 84 -141 34 0 62 34 76 94 15
65 39 126 49 126 17 0 23 -46 40 -300 20 -290 31 -345 70 -345 17 0 26 7 31
27 11 42 28 316 39 653 6 171 15 391 21 490 5 99 9 200 9 224 0 24 2 42 5 40
5 -5 16 -156 36 -489 22 -372 36 -500 56 -516 42 -31 60 -9 93 116 45 172 75
255 98 279 l23 23 26 -23 c13 -13 58 -71 98 -129 101 -146 112 -155 188 -154
53 0 77 7 161 48 168 81 116 76 727 76 359 0 549 3 549 10 0 9 -486 17 -945
14 -180 -1 -193 -3 -343 -77 -131 -64 -175 -67 -227 -17 -19 19 -65 78 -102
133 -96 142 -126 161 -177 111 -26 -27 -40 -66 -100 -283 -42 -154 -58 -150
-74 16 -6 65 -18 224 -27 353 -8 129 -19 302 -25 384 -6 101 -14 152 -22 158
-17 10 -26 10 -33 -2z"/>
</g>
</svg>
