<?xml version="1.0" standalone="no"?>
<!DOCTYPE svg PUBLIC "-//W3C//DTD SVG 20010904//EN"
 "http://www.w3.org/TR/2001/REC-SVG-20010904/DTD/svg10.dtd">
<svg version="1.0" xmlns="http://www.w3.org/2000/svg"
 width="656.000000pt" height="800.000000pt" viewBox="0 0 656.000000 800.000000"
 preserveAspectRatio="xMidYMid meet">

<g transform="translate(0.000000,800.000000) scale(0.100000,-0.100000)"
fill="#000000" stroke="none">
<path d="M3227 6732 c-37 -31 -84 -79 -105 -107 -21 -27 -94 -106 -162 -174
-111 -112 -127 -133 -166 -216 -53 -111 -65 -168 -56 -261 l7 -69 42 -3 c48
-4 45 -6 133 113 77 105 172 203 205 211 14 3 28 5 30 3 2 -2 5 -422 7 -932
l3 -928 -85 -81 c-47 -44 -115 -107 -151 -139 -132 -115 -179 -210 -182 -364
-1 -72 3 -99 21 -137 11 -27 26 -48 32 -48 16 0 60 50 131 153 56 79 202 236
220 237 21 0 26 -166 7 -227 -17 -53 -148 -202 -249 -285 -51 -41 -123 -153
-145 -224 -25 -84 -29 -178 -10 -229 27 -71 45 -73 103 -17 26 26 78 86 115
132 72 91 175 200 188 200 10 0 20 -53 20 -111 0 -71 -40 -151 -113 -230 -98
-105 -150 -159 -180 -187 -46 -43 -107 -129 -123 -175 -10 -25 -16 -80 -17
-137 l-2 -95 34 -3 c55 -5 115 24 158 76 20 26 85 94 143 152 58 58 123 128
146 155 30 36 47 49 65 48 13 -1 26 3 30 8 3 6 35 -22 70 -61 35 -39 104 -112
153 -163 49 -51 104 -116 123 -145 21 -32 41 -52 53 -52 10 0 32 -12 49 -26
29 -24 34 -25 64 -14 17 7 38 20 45 28 26 33 7 179 -35 269 -20 41 -67 95
-193 221 -209 209 -221 227 -223 325 -1 42 1 78 5 82 20 21 113 -59 278 -242
53 -58 112 -103 137 -103 28 0 47 122 34 226 -17 139 -29 157 -245 369 l-194
190 -11 66 c-6 36 -11 92 -11 123 l0 58 43 -33 c57 -46 177 -167 206 -209 32
-48 141 -130 172 -130 34 0 55 126 38 230 -20 125 -30 137 -352 449 l-87 85 0
881 c0 836 3 975 20 975 4 0 32 -17 63 -38 59 -40 99 -87 161 -189 20 -34 51
-74 68 -88 27 -23 38 -26 72 -21 66 11 69 17 64 131 -7 178 -55 260 -289 495
-79 80 -157 162 -173 183 -28 37 -90 77 -118 77 -7 0 -43 -26 -81 -58z"/>
<path d="M1363 6623 c-15 -5 -7 -3847 9 -3918 31 -141 135 -316 270 -455 116
-119 207 -191 267 -211 28 -10 63 -27 78 -39 77 -61 308 -93 660 -91 183 1
277 -3 347 -14 53 -9 101 -18 108 -21 23 -10 130 -156 154 -210 13 -30 30 -54
38 -54 17 0 70 65 81 100 19 63 94 122 215 168 51 19 79 21 400 25 270 3 362
8 425 21 95 20 278 90 320 123 17 13 73 57 126 98 148 114 228 212 309 380 83
173 79 161 97 275 14 83 17 326 20 1915 2 1001 2 1834 -2 1852 -6 31 -6 31
-78 38 -40 3 -371 7 -736 8 l-663 2 5 -43 c3 -29 14 -53 31 -71 14 -15 26 -35
26 -45 0 -48 108 -156 155 -156 11 0 31 -7 44 -16 21 -15 68 -16 445 -13 l421
4 5 -480 c3 -264 5 -1045 5 -1735 -1 -1326 0 -1282 -47 -1414 -49 -135 -201
-285 -366 -362 -167 -78 -234 -86 -672 -75 -201 5 -329 -42 -484 -177 -26 -23
-52 -42 -57 -42 -6 0 -29 18 -51 40 -23 22 -47 40 -53 40 -5 0 -36 18 -68 40
-72 50 -240 99 -352 101 -53 2 -322 -12 -337 -17 -10 -3 -68 2 -129 11 -184
27 -327 98 -465 232 -63 61 -90 96 -121 158 -49 99 -70 162 -77 240 -3 33 -6
813 -7 1733 -1 1248 2 1676 10 1686 10 11 77 14 364 15 418 1 481 7 574 55 87
45 99 55 172 148 68 87 75 112 34 123 -16 3 -323 9 -683 11 -360 3 -678 9
-705 13 -28 4 -56 6 -62 4z"/>
</g>
</svg>
