<?xml version="1.0" standalone="no"?>
<!DOCTYPE svg PUBLIC "-//W3C//DTD SVG 20010904//EN"
 "http://www.w3.org/TR/2001/REC-SVG-20010904/DTD/svg10.dtd">
<svg version="1.0" xmlns="http://www.w3.org/2000/svg"
 width="41.000000pt" height="50.000000pt" viewBox="0 0 41.000000 50.000000"
 preserveAspectRatio="xMidYMid meet">

<g transform="translate(0.000000,50.000000) scale(0.100000,-0.100000)"
fill="#000000" stroke="none">
<path d="M187 402 c-21 -23 -22 -39 -2 -22 13 11 15 5 15 -48 0 -41 -5 -63
-15 -72 -20 -17 -19 -31 3 -23 16 6 16 5 0 -14 -10 -11 -18 -22 -18 -26 0 -3
8 -4 18 0 15 6 15 4 -2 -15 -11 -12 -17 -24 -14 -27 3 -3 11 1 18 10 12 14 15
14 31 -1 11 -10 19 -12 19 -6 0 6 -4 14 -10 17 -5 3 -10 11 -10 16 0 6 5 7 10
4 6 -3 10 -2 10 4 0 5 -4 13 -10 16 -5 3 -10 11 -10 16 0 6 5 7 10 4 15 -9 12
7 -5 29 -9 11 -15 41 -15 69 0 40 3 48 15 43 8 -3 15 0 15 7 0 9 11 12 35 9
l35 -4 0 -113 c0 -78 -4 -116 -12 -123 -13 -10 -77 -17 -135 -14 -55 3 -63 20
-63 143 l0 109 29 0 c17 0 33 5 36 10 4 6 -11 10 -37 10 l-43 0 3 -127 c3 -89
8 -132 17 -142 34 -34 185 -31 212 5 9 12 13 55 13 142 l0 123 -50 -2 c-27 -2
-53 0 -56 4 -11 11 -20 8 -37 -11z"/>
</g>
</svg>
