<?xml version="1.0" standalone="no"?>
<!DOCTYPE svg PUBLIC "-//W3C//DTD SVG 20010904//EN"
 "http://www.w3.org/TR/2001/REC-SVG-20010904/DTD/svg10.dtd">
<svg version="1.0" xmlns="http://www.w3.org/2000/svg"
 width="1312.000000pt" height="1600.000000pt" viewBox="0 0 1312.000000 1600.000000"
 preserveAspectRatio="xMidYMid meet">

<g transform="translate(0.000000,1600.000000) scale(0.100000,-0.100000)"
fill="#000000" stroke="none">
<path d="M6544 13538 c-38 -28 -82 -64 -99 -79 -16 -14 -52 -46 -78 -69 -26
-24 -68 -71 -93 -104 -84 -114 -103 -136 -198 -218 -27 -24 -59 -54 -70 -68
-12 -13 -52 -56 -91 -96 -81 -83 -193 -205 -230 -251 -34 -42 -147 -278 -181
-378 -14 -44 -29 -111 -32 -148 -6 -78 15 -306 30 -324 13 -16 113 -9 160 10
26 11 48 33 77 79 110 175 352 459 451 530 40 29 110 52 122 40 10 -10 11
-117 10 -742 -1 -272 3 -976 8 -1565 9 -988 5 -1325 -15 -1408 -6 -23 -265
-279 -436 -430 -199 -175 -296 -307 -352 -477 -25 -74 -30 -105 -34 -241 -6
-166 9 -264 47 -319 9 -14 20 -38 24 -54 5 -21 10 -26 16 -17 6 11 10 10 18
-5 9 -15 19 -8 85 60 42 43 83 92 91 110 9 18 23 39 31 46 9 8 23 27 32 43 8
17 24 40 35 51 10 12 35 44 53 71 75 108 99 141 119 160 12 11 28 29 36 40 8
11 33 32 55 47 23 16 69 56 104 90 l63 62 13 -25 c14 -27 35 -188 35 -266 -1
-64 -53 -249 -76 -272 -11 -10 -30 -33 -44 -50 -14 -17 -31 -31 -38 -31 -7 0
-15 -7 -19 -16 -3 -9 -26 -37 -50 -61 -24 -25 -64 -70 -90 -102 -73 -87 -172
-181 -191 -181 -11 0 -142 -129 -142 -139 0 -5 -25 -45 -55 -90 -90 -137 -125
-231 -156 -424 -20 -127 1 -308 40 -337 3 -3 15 -18 25 -33 9 -16 20 -26 23
-23 4 3 12 1 19 -5 9 -7 20 -6 38 6 14 10 26 21 26 26 0 5 6 9 13 9 16 0 75
57 116 113 171 229 183 244 340 411 25 28 68 75 95 105 27 31 62 61 78 68 27
12 29 11 39 -15 12 -32 28 -245 21 -290 -2 -19 -11 -36 -18 -39 -8 -3 -14 -11
-14 -17 0 -27 -54 -143 -84 -181 -17 -21 -74 -83 -126 -137 -52 -53 -99 -103
-105 -111 -5 -8 -25 -37 -44 -63 -43 -61 -76 -93 -125 -119 -20 -11 -43 -27
-51 -35 -7 -8 -29 -32 -49 -53 -20 -22 -36 -42 -36 -46 0 -4 -13 -20 -30 -36
-16 -16 -30 -33 -30 -37 0 -5 -24 -41 -53 -81 -38 -50 -61 -95 -77 -146 -36
-118 -57 -408 -31 -434 6 -6 11 -20 11 -30 0 -14 3 -17 13 -10 6 6 46 13 87
16 56 4 92 13 140 36 57 28 75 44 149 136 47 58 123 140 170 183 199 179 361
355 361 391 0 14 110 111 128 113 9 1 33 2 52 2 22 1 34 6 32 14 -1 6 6 12 16
12 17 0 91 -73 169 -167 94 -114 121 -143 183 -198 94 -82 307 -328 361 -417
43 -71 45 -72 86 -73 35 -1 49 -8 92 -48 55 -52 59 -53 104 -33 18 7 45 17 62
22 16 5 40 24 52 43 20 29 23 47 23 120 0 118 -32 277 -77 384 -36 83 -49 100
-214 280 -96 106 -197 212 -223 237 -229 213 -367 368 -394 440 -19 49 -26
329 -9 335 6 3 32 -1 56 -9 35 -10 73 -40 175 -137 72 -68 151 -148 176 -178
25 -30 57 -66 71 -80 14 -14 33 -40 42 -58 9 -17 50 -59 92 -93 41 -33 78 -66
82 -73 5 -7 37 -27 72 -45 74 -37 78 -36 112 41 22 49 24 64 24 237 0 217 -11
288 -64 411 -36 83 -49 99 -192 252 -85 89 -157 163 -161 165 -20 9 -144 118
-232 202 -124 120 -215 230 -233 284 -18 52 -57 380 -49 412 4 13 11 24 18 24
6 0 36 -21 66 -47 31 -27 59 -48 62 -48 3 0 26 -22 53 -48 26 -26 52 -47 57
-47 6 0 9 -3 8 -7 -1 -5 47 -57 106 -117 59 -61 116 -126 126 -145 22 -44 83
-107 134 -141 21 -14 57 -41 80 -60 85 -74 141 -93 172 -59 32 36 44 92 51
236 7 159 -5 258 -43 365 -38 105 -63 141 -200 289 -126 137 -184 193 -359
343 -49 42 -101 89 -114 104 -13 15 -47 52 -75 82 -28 30 -62 68 -74 85 l-23
29 4 1426 c2 784 0 1522 -4 1640 -8 209 5 594 22 621 11 19 71 -7 145 -64 38
-29 77 -58 88 -64 27 -15 153 -189 235 -324 103 -170 193 -243 268 -218 16 5
45 11 66 14 65 10 73 27 81 161 7 123 -2 220 -28 309 -27 91 -92 239 -125 285
-17 25 -49 70 -70 100 -56 79 -172 203 -440 470 -130 130 -249 256 -265 280
-39 59 -79 94 -146 129 -92 47 -90 47 -166 -11z"/>
<path d="M2712 13237 c-16 -19 -15 210 -8 -3842 4 -2104 10 -3651 16 -3767 9
-187 12 -203 46 -305 41 -122 108 -271 151 -335 16 -24 49 -79 72 -123 47 -87
83 -136 177 -235 33 -36 79 -90 101 -120 47 -64 113 -130 169 -167 33 -22 114
-90 209 -176 36 -33 105 -68 178 -91 41 -13 107 -45 148 -73 153 -101 306
-135 814 -179 137 -11 288 -15 630 -12 386 2 463 0 540 -15 50 -9 122 -21 160
-27 39 -6 80 -17 92 -23 11 -7 54 -55 94 -107 39 -52 89 -114 109 -138 21 -23
55 -79 76 -125 70 -148 78 -160 104 -162 25 -2 31 4 94 85 45 57 67 96 72 127
9 48 72 132 134 176 108 79 430 225 430 195 0 -8 44 -9 163 -3 89 4 178 7 197
6 266 -7 780 3 930 18 186 20 388 60 455 91 33 15 128 54 210 85 130 50 155
63 192 101 23 24 48 44 56 44 22 0 281 203 408 321 61 56 203 220 250 289 48
68 126 210 149 270 8 19 46 101 86 182 94 192 127 340 144 653 5 88 12 1758
15 3711 5 3505 5 3594 -24 3626 -17 20 -215 30 -566 29 -209 0 -813 -1 -1343
-2 -874 -1 -965 0 -981 15 -16 15 -19 15 -35 -3 -16 -17 -17 -28 -7 -86 11
-72 58 -159 90 -168 13 -3 20 -18 26 -53 4 -30 21 -71 42 -104 37 -57 151
-180 167 -180 5 0 14 -7 20 -15 9 -13 40 -19 117 -24 9 -1 29 -13 45 -27 26
-25 38 -27 159 -36 77 -6 326 -7 615 -2 267 4 598 7 735 8 l250 1 1 -440 c0
-242 3 -1772 5 -3400 4 -3364 10 -3095 -78 -3355 -55 -163 -69 -192 -138 -283
-106 -142 -142 -180 -280 -291 -139 -113 -207 -159 -275 -186 -19 -7 -80 -35
-135 -60 -138 -66 -302 -104 -555 -130 -148 -16 -470 -2 -627 26 -46 8 -88 12
-94 8 -7 -4 -73 -11 -148 -15 -75 -4 -175 -17 -223 -28 -177 -39 -428 -178
-597 -330 -92 -83 -88 -81 -125 -70 -30 8 -96 73 -96 95 0 10 -106 64 -125 64
-4 0 -24 15 -45 33 -47 42 -143 101 -200 126 -32 13 -130 41 -138 39 -8 -2
-148 39 -177 52 -37 16 -68 19 -86 9 -24 -12 -101 0 -92 15 3 6 0 6 -8 -1 -17
-17 -29 -16 -29 1 0 22 -42 24 -71 3 -23 -17 -35 -17 -141 -8 -111 10 -162 5
-191 -17 -7 -5 -64 -5 -127 -1 -63 4 -119 4 -125 1 -30 -18 -128 -18 -226 0
-57 10 -133 20 -169 22 -75 4 -164 28 -232 62 -26 13 -77 35 -114 49 -138 52
-308 158 -414 259 -41 40 -96 89 -122 110 -63 50 -158 191 -225 334 -132 278
-133 285 -141 972 -4 294 -7 1825 -7 3402 l0 2868 28 27 27 28 338 -3 c427 -3
1149 14 1267 31 79 12 110 23 249 91 139 67 167 85 218 138 32 33 55 64 52 69
-3 5 0 9 5 9 6 0 11 6 11 14 0 8 20 31 45 52 25 20 45 44 45 54 0 10 18 36 40
59 61 63 67 118 15 133 -82 24 -303 29 -1450 33 -774 3 -1262 8 -1315 15 -47
6 -103 13 -126 16 -28 4 -44 2 -52 -9z"/>
</g>
</svg>
